<svg width="64" height="64" xmlns="http://www.w3.org/2000/svg">

 <g>
  <title>background</title>
  <rect fill="none" id="canvas_background" height="402" width="582" y="-1" x="-1"/>
 </g>
 <g>
  <title>Layer 1</title>
  <path fill="#2daf90" id="svg_2" d="m55.80371,24.59668l-30,0c-0.55273,0 -1,0.44775 -1,1l0,20c0,0.55225 0.44727,1 1,1l15.78418,0l3.55566,6.29102c0.17676,0.31396 0.50977,0.50781 0.87012,0.50781s0.69336,-0.19385 0.87012,-0.50781l3.55566,-6.29102l5.36426,0c0.55274,0 1,-0.44775 1,-1l0,-20c0,-0.55225 -0.44726,-1 -1,-1zm-5.89258,17l-18.21484,0c-0.55274,0 -1,-0.44775 -1,-1s0.44726,-1 1,-1l18.21484,0c0.55274,0 1,0.44775 1,1s-0.44726,1 -1,1zm0,-5l-18.21484,0c-0.55274,0 -1,-0.44775 -1,-1s0.44726,-1 1,-1l18.21484,0c0.55274,0 1,0.44775 1,1s-0.44726,1 -1,1zm0,-5l-14.91601,0c-0.55274,0 -1,-0.44775 -1,-1s0.44726,-1 1,-1l14.91601,0c0.55274,0 1,0.44775 1,1s-0.44726,1 -1,1z"/>
  <path fill="#2daf90" id="svg_3" d="m39.19629,22.59668l0,-10.99219c0,-0.55224 -0.44727,-1 -1,-1l-30,0c-0.55274,0 -1,0.44776 -1,1l0,20c0,0.55225 0.44726,1 1,1l4.36426,0l3.55566,6.29102c0.17676,0.31396 0.50977,0.50781 0.87012,0.50781s0.69336,-0.19385 0.87012,-0.50781l3.55566,-6.29102l1.3916,0l0,-7.00781c0,-1.6543 1.3457,-3 3,-3l13.39258,0zm-19.9043,5.00781l-5.20312,0c-0.55274,0 -1,-0.44775 -1,-1s0.44726,-1 1,-1l5.20312,0c0.55274,0 1,0.44776 1,1s-0.44726,1 -1,1zm0,-5l-5.20312,0c-0.55274,0 -1,-0.44775 -1,-1s0.44726,-1 1,-1l5.20312,0c0.55274,0 1,0.44776 1,1s-0.44726,1 -1,1zm-5.20312,-5c-0.55274,0 -1,-0.44775 -1,-1s0.44726,-1 1,-1l14.91601,0c0.55274,0 1,0.44776 1,1s-0.44726,1 -1,1l-14.91601,0z"/>
 </g>
</svg>