<svg width="24.000000000000004" height="24.000000000000004" xmlns="http://www.w3.org/2000/svg">
 <title/>

 <g>
  <title>background</title>
  <rect fill="none" id="canvas_background" height="402" width="582" y="-1" x="-1"/>
 </g>
 <g>
  <title>Layer 1</title>
  <path fill="#273152" id="svg_1" d="m19.69,1l-15.38,0a3.31,3.31 0 0 0 -3.31,3.31l0,15.38a3.31,3.31 0 0 0 3.31,3.31l15.38,0a3.31,3.31 0 0 0 3.31,-3.31l0,-15.38a3.31,3.31 0 0 0 -3.31,-3.31zm1.31,18.69a1.31,1.31 0 0 1 -1.31,1.31l-15.38,0a1.31,1.31 0 0 1 -1.31,-1.31l0,-3.22l5.45,-4.47a0.56,0.56 0 0 1 0.42,-0.16a0.54,0.54 0 0 1 0.4,0.22l0.66,0.88a2.48,2.48 0 0 0 2.07,1a2.52,2.52 0 0 0 2,-1.07l2,-2.81a0.56,0.56 0 0 1 0.53,-0.22a0.54,0.54 0 0 1 0.43,0.37l4,7.06l0.04,2.42zm-0.04,-8.9l-2.09,-1.33a2.52,2.52 0 0 0 -2,-1.61a2.55,2.55 0 0 0 -2.45,1l-2,2.81a0.54,0.54 0 0 1 -0.44,0.23a0.61,0.61 0 0 1 -0.45,-0.22l-0.66,-0.88a2.58,2.58 0 0 0 -1.87,-0.98a2.49,2.49 0 0 0 -1.91,0.68l-4.09,3.39l0,-9.57a1.31,1.31 0 0 1 1.31,-1.31l15.38,0a1.31,1.31 0 0 1 1.31,1.31l-0.04,6.48z"/>
  <circle fill="#273152" id="svg_2" r="1.5" cy="6.5" cx="6.5"/>
 </g>
</svg>