<svg width="50" height="50" xmlns="http://www.w3.org/2000/svg">

 <g>
  <title>background</title>
  <rect fill="none" id="canvas_background" height="402" width="582" y="-1" x="-1"/>
 </g>
 <g>
  <title>Layer 1</title>
  <path stroke="#000000" stroke-opacity="0" fill="#ffffff" id="svg_4" d="m19.55,38.22l-3.17,-10.73l-7.37,0l3.76,12.73c0.44,1.5 1.82,2.53 3.39,2.53l0,0c2.36,0 4.06,-2.27 3.39,-4.53z" class="st2"/>
  <path fill="#ffffff" id="svg_5" d="m8.14,14.99c-3.45,0 -6.25,2.8 -6.25,6.25s2.8,6.25 6.25,6.25l11.33,0l0,-12.5l-11.33,0z" class="st6"/>
  <polygon fill="#ffffff" id="svg_6" points="37.09,39.59 19.48,27.49 19.48,14.99 37.09,2.89   " class="st3"/>
  <path fill="#ffffff" id="svg_7" d="m41.65,14.68c-0.19,0 -0.38,0 -0.56,0.03l0,13.04c0.17,0.03 0.37,0.03 0.56,0.03c3.63,0 6.56,-2.95 6.56,-6.56s-2.94,-6.54 -6.56,-6.54z" class="st1"/>
  <rect fill="#ffffff" id="svg_8" y="3.563077" x="37.09" width="4" height="36.7" class="st7"/>
  <path fill="#2daf90" id="svg_10" d="m28.65,9.43c0.15,0 0.3,-0.05 0.42,-0.13c0.17,-0.11 0.28,-0.29 0.32,-0.48c0.03,-0.2 -0.01,-0.4 -0.12,-0.56c-0.23,-0.33 -0.71,-0.42 -1.05,-0.2c-0.16,0.12 -0.27,0.29 -0.31,0.48c-0.04,0.2 0.01,0.4 0.12,0.56c0.14,0.21 0.37,0.33 0.62,0.33z" class="st4"/>
  <path fill="#2daf90" id="svg_11" d="m48.95,21.24c0,-3.96 -3.17,-7.19 -7.11,-7.3l0,-11.05c0,-0.41 -0.34,-0.75 -0.75,-0.75l-4,0c-0.01,0 -0.02,0 -0.03,0.01c-0.02,0 -0.04,0.01 -0.07,0.01c-0.1,0.01 -0.2,0.05 -0.29,0.1c-0.01,0.01 -0.03,0.01 -0.05,0.02l-6.79,4.66c-0.34,0.23 -0.42,0.7 -0.19,1.04c0.23,0.33 0.71,0.42 1.04,0.2l5.62,-3.86l0,33.85l-16.11,-11.08l0,-11.71l7.2,-4.95c0.34,-0.23 0.43,-0.7 0.2,-1.04c-0.23,-0.33 -0.72,-0.42 -1.04,-0.19l-7.33,5.03l-11.11,0c-3.86,0 -7,3.14 -7,7c0,3.86 3.14,7 7,7l0.3,0l3.6,12.2c0.53,1.81 2.22,3.07 4.11,3.07c1.37,0 2.62,-0.63 3.43,-1.72c0.82,-1.09 1.06,-2.47 0.68,-3.78l-2.88,-9.77l1.86,0l17.42,11.97c0.03,0.02 0.06,0.03 0.08,0.04c0.03,0.01 0.05,0.03 0.08,0.04c0.06,0.02 0.12,0.03 0.19,0.04c0.02,0 0.04,0.01 0.07,0.01l4,0c0.41,0 0.75,-0.34 0.75,-0.75l0,-11.05c3.95,-0.1 7.12,-3.33 7.12,-7.29zm-46.3,0c0,-3.03 2.47,-5.5 5.5,-5.5l10.58,0l0,11l-10.59,0c-3.03,0 -5.49,-2.47 -5.49,-5.5zm16.18,17.19c0.25,0.85 0.09,1.75 -0.44,2.46c-0.53,0.71 -1.35,1.11 -2.23,1.11c-1.23,0 -2.32,-0.82 -2.67,-2l-3.48,-11.77l5.81,0l3.01,10.2zm21.51,0.41l-2.5,0l0,-35.2l2.5,0l0,11.08l0,13.04l0,11.08zm1.5,-11.8l0,-11.61c3.11,0.1 5.61,2.67 5.61,5.8s-2.5,5.71 -5.61,5.81z" class="st4"/>
 </g>
</svg>