<svg width="100" height="100" xmlns="http://www.w3.org/2000/svg">
 <title/>

 <g>
  <title>background</title>
  <rect fill="none" id="canvas_background" height="402" width="582" y="-1" x="-1"/>
 </g>
 <g>
  <title>Layer 1</title>
  <path fill="#6ec4a7" id="svg_1" d="m80.49,32.94l-13.43,-13.43a5.18,5.18 0 0 0 -3.66,-1.51l-40.23,0a5.18,5.18 0 0 0 -5.17,5.17l0,53.66a5.18,5.18 0 0 0 5.17,5.17l53.66,0a5.18,5.18 0 0 0 5.17,-5.17l0,-40.24a5.15,5.15 0 0 0 -1.51,-3.65zm-22.3,-10.94l0,10.88l-26.52,0l0,-10.88l26.52,0zm-20.83,56l0,-18.67l25.28,0l0,18.67l-25.28,0zm40.64,-1.17a1.17,1.17 0 0 1 -1.17,1.17l-10.19,0l0,-20.67a2,2 0 0 0 -2,-2l-29.28,0a2,2 0 0 0 -2,2l0,20.67l-10.19,0a1.17,1.17 0 0 1 -1.17,-1.17l0,-53.66a1.17,1.17 0 0 1 1.17,-1.17l4.5,0l0,12.88a2,2 0 0 0 2,2l30.52,0a2,2 0 0 0 2,-2l0,-12.88l1.21,0a1.22,1.22 0 0 1 0.83,0.34l13.43,13.43a1.15,1.15 0 0 1 0.34,0.82l0,40.24zm-43.25,-47.58l0,-3a2,2 0 0 1 4,0l0,3a2,2 0 0 1 -4,0z"/>
 </g>
</svg>