<svg width="642" height="482" xmlns="http://www.w3.org/2000/svg">

 <title/>
 <g>
  <title>background</title>
  <rect fill="none" id="canvas_background" height="484" width="644" y="-1" x="-1"/>
 </g>
 <g>
  <title>Layer 1</title>
  <path fill="#ffffff" id="svg_1" d="m181.77,165a11.28,11.28 0 0 1 -10.82,8l-139.95,0a11.33,11.33 0 0 1 -9.81,-17l70,-121.16a11.32,11.32 0 0 1 19.62,0l70,121.16a11.15,11.15 0 0 1 0.96,9z" class="cls-1"/>
  <path fill="#ffc861" id="svg_2" d="m181.77,165l-144.7,0c-8.72,0 -5.17,-9.44 -0.81,-17l68.3,-118.3a11.2,11.2 0 0 1 6.25,5.1l70,121.16a11.15,11.15 0 0 1 0.96,9.04z" class="cls-2"/>
  <path fill="#2f4360" id="svg_3" d="m102.69,140.57q-2.92,-0.07 -5.84,0a4.72,4.72 0 0 1 -4.85,-4.42l-3.7,-58.79a4.74,4.74 0 0 1 4.55,-5q6.9,-0.25 13.81,0a4.74,4.74 0 0 1 4.55,5l-3.7,58.79a4.72,4.72 0 0 1 -4.82,4.42z" class="cls-3"/>
  <path fill="#2f4360" id="svg_4" d="m106.62,150.69a6.88,6.88 0 0 1 -13.69,0c-0.27,-3.54 2.8,-6.66 6.84,-6.66s7.11,3.12 6.85,6.66z" class="cls-3"/>
  <path stroke="#2f4360" stroke-width="6px" stroke-linejoin="round" stroke-linecap="round" fill="none" id="svg_5" d="m21.23,155.92l70,-121.16a11.33,11.33 0 0 1 19.63,0l70,121.16a11.33,11.33 0 0 1 -9.81,17l-140.05,0a11.33,11.33 0 0 1 -9.77,-17z" class="cls-4"/>
 </g>
</svg>